<svg width="42" height="42" viewBox="0 0 42 42" fill="none" xmlns="http://www.w3.org/2000/svg">
<path d="M21.0001 3.85714C22.4661 3.85714 23.8761 4.42062 24.9384 5.43103C26.0006 6.44144 26.6339 7.82148 26.7072 9.28571L26.7144 9.57142H33.8572C34.2213 9.57183 34.5715 9.71125 34.8363 9.96121C35.1011 10.2112 35.2604 10.5528 35.2817 10.9163C35.3031 11.2798 35.1848 11.6377 34.9511 11.9169C34.7174 12.1961 34.3859 12.3756 34.0244 12.4186L33.8572 12.4286H32.6444L30.9586 33.2186C30.8499 34.5601 30.2401 35.8115 29.2507 36.724C28.2612 37.6364 26.9646 38.1429 25.6186 38.1429H16.3815C15.0356 38.1429 13.7389 37.6364 12.7495 36.724C11.76 35.8115 11.1502 34.5601 11.0415 33.2186L9.35436 12.4286H8.14293C7.79302 12.4285 7.4553 12.3001 7.19382 12.0675C6.93235 11.835 6.76529 11.5146 6.72436 11.1671L6.71436 11C6.7144 10.6501 6.84286 10.3124 7.07538 10.0509C7.30789 9.78941 7.62828 9.62236 7.97578 9.58142L8.14293 9.57142H15.2858C15.2858 8.0559 15.8878 6.60245 16.9595 5.53082C18.0311 4.45918 19.4845 3.85714 21.0001 3.85714ZM17.7858 17.0714C17.5269 17.0714 17.2767 17.1652 17.0816 17.3354C16.8865 17.5056 16.7596 17.7406 16.7244 17.9971L16.7144 18.1429V29.5714L16.7244 29.7171C16.7596 29.9736 16.8866 30.2086 17.0817 30.3787C17.2768 30.5488 17.5269 30.6425 17.7858 30.6425C18.0446 30.6425 18.2948 30.5488 18.4899 30.3787C18.685 30.2086 18.8119 29.9736 18.8472 29.7171L18.8572 29.5714V18.1429L18.8472 17.9971C18.812 17.7406 18.6851 17.5056 18.49 17.3354C18.2948 17.1652 18.0447 17.0714 17.7858 17.0714ZM24.2144 17.0714C23.9554 17.0714 23.7053 17.1652 23.5102 17.3354C23.315 17.5056 23.1881 17.7406 23.1529 17.9971L23.1429 18.1429V29.5714L23.1529 29.7171C23.1882 29.9736 23.3151 30.2086 23.5103 30.3787C23.7054 30.5488 23.9555 30.6425 24.2144 30.6425C24.4732 30.6425 24.7233 30.5488 24.9184 30.3787C25.1136 30.2086 25.2405 29.9736 25.2758 29.7171L25.2858 29.5714V18.1429L25.2758 17.9971C25.2406 17.7406 25.1137 17.5056 24.9185 17.3354C24.7234 17.1652 24.4733 17.0714 24.2144 17.0714ZM21.0001 6.71428C20.2792 6.71405 19.585 6.98629 19.0564 7.47642C18.5279 7.96655 18.2041 8.63835 18.1501 9.35714L18.1429 9.57142H23.8572L23.8501 9.35714C23.796 8.63835 23.4723 7.96655 22.9437 7.47642C22.4152 6.98629 21.7209 6.71405 21.0001 6.71428Z" fill="#CB4040"/>
<rect x="0.5" y="0.5" width="41" height="41" stroke="#CB4040" stroke-linejoin="round"/>
</svg>
